<?xml version="1.0" encoding="UTF-8"?>
<svg version="1.1" xmlns="http://www.w3.org/2000/svg" width="512" height="512">
<path d="M0 0 C1.59443414 -0.00462073 3.18886401 -0.01098144 4.78328514 -0.01890898 C9.12156164 -0.03546473 13.459482 -0.02741931 17.79775906 -0.0149641 C22.49314614 -0.00585902 27.18847487 -0.01991023 31.8838501 -0.03088379 C41.06507742 -0.04861567 50.2461735 -0.04485286 59.42740583 -0.03323323 C66.89308208 -0.02417812 74.35872169 -0.02298387 81.82440186 -0.02732849 C82.8893281 -0.02794142 83.95425435 -0.02855436 85.05145109 -0.02918586 C87.21522412 -0.03046484 89.37899714 -0.03176169 91.54277015 -0.03307623 C111.80459524 -0.04446641 132.0663478 -0.03139286 152.328161 -0.00987476 C169.69162932 0.00799478 187.05499064 0.00489024 204.41845703 -0.0135498 C224.61068036 -0.03498413 244.8028402 -0.04336792 264.99507332 -0.03110075 C267.15062585 -0.02982663 269.3061784 -0.02856915 271.46173096 -0.02732849 C273.05234756 -0.02640284 273.05234756 -0.02640284 274.67509782 -0.02545848 C282.12673688 -0.02201327 289.57833547 -0.02781602 297.02996826 -0.0372467 C306.11829114 -0.04849657 315.20647593 -0.04536401 324.29478312 -0.02412373 C328.92658234 -0.01365343 333.55815181 -0.00942243 338.18994904 -0.02272034 C342.43886639 -0.03473398 346.68734336 -0.02793575 350.93622136 -0.00681013 C352.46428919 -0.00238173 353.99239506 -0.00452442 355.52043796 -0.01431328 C368.62567123 -0.09175596 381.06779542 1.98198065 392.83056641 8.07043457 C393.48927734 8.40631592 394.14798828 8.74219727 394.82666016 9.08825684 C401.79909411 12.83712243 407.18009143 17.84868504 412.64306641 23.50793457 C413.38041016 24.21434082 414.11775391 24.92074707 414.87744141 25.64855957 C419.15872847 29.99622318 422.10986382 34.75134132 424.89306641 40.13293457 C425.36921387 41.0362854 425.36921387 41.0362854 425.85498047 41.95788574 C431.79934617 54.12945893 433.23653621 66.51280602 433.15100098 79.86486816 C433.1556217 81.45930231 433.16198242 83.05373217 433.16990995 84.64815331 C433.18646571 88.9864298 433.17842029 93.32435016 433.16596508 97.66262722 C433.15685999 102.3580143 433.17091121 107.05334303 433.18188477 111.74871826 C433.19961665 120.92994558 433.19585384 130.11104166 433.1842342 139.292274 C433.1751791 146.75795024 433.17398484 154.22358986 433.17832947 161.68927002 C433.1789424 162.75419627 433.17955533 163.81912251 433.18018684 164.91631925 C433.18146581 167.08009228 433.18276267 169.2438653 433.1840772 171.40763831 C433.19546739 191.66946341 433.18239383 211.93121597 433.16087574 232.19302917 C433.14300619 249.55649748 433.14611074 266.91985881 433.16455078 284.2833252 C433.18598511 304.47554852 433.1943689 324.66770837 433.18210173 344.85994148 C433.18082761 347.01549402 433.17957012 349.17104657 433.17832947 351.32659912 C433.17771237 352.38701019 433.17709526 353.44742125 433.17645946 354.53996599 C433.17301425 361.99160504 433.178817 369.44320364 433.18824768 376.89483643 C433.19949755 385.98315931 433.19636498 395.0713441 433.1751247 404.15965128 C433.16465441 408.7914505 433.16042341 413.42301998 433.17372131 418.0548172 C433.18573495 422.30373455 433.17893673 426.55221152 433.15781111 430.80108953 C433.15338271 432.32915735 433.15552539 433.85726323 433.16531426 435.38530612 C433.24275693 448.49053939 431.16902033 460.93266358 425.08056641 472.69543457 C424.74468506 473.35414551 424.40880371 474.01285645 424.06274414 474.69152832 C420.31387855 481.66396228 415.30231593 487.04495959 409.64306641 492.50793457 C408.93666016 493.24527832 408.23025391 493.98262207 407.50244141 494.74230957 C403.1547778 499.02359664 398.39965966 501.97473199 393.01806641 504.75793457 C392.11471558 505.23408203 392.11471558 505.23408203 391.19311523 505.71984863 C379.02154204 511.66421433 366.63819496 513.10140437 353.28613281 513.01586914 C351.69169867 513.02048987 350.0972688 513.02685058 348.50284767 513.03477812 C344.16457118 513.05133387 339.82665081 513.04328845 335.48837376 513.03083324 C330.79298668 513.02172816 326.09765794 513.03577937 321.40228271 513.04675293 C312.2210554 513.06448482 303.03995931 513.06072201 293.85872698 513.04910237 C286.39305074 513.04004727 278.92741112 513.03885301 271.46173096 513.04319763 C270.39680471 513.04381056 269.33187846 513.0444235 268.23468173 513.045055 C266.07090869 513.04633398 263.90713567 513.04763083 261.74336267 513.04894537 C241.48153757 513.06033555 221.21978501 513.047262 200.95797181 513.0257439 C183.59450349 513.00787436 166.23114217 513.0109789 148.86767578 513.02941895 C128.67545245 513.05085327 108.48329261 513.05923706 88.29105949 513.04696989 C86.13550696 513.04569577 83.97995441 513.04443829 81.82440186 513.04319763 C80.76399079 513.04258053 79.70357972 513.04196343 78.61103499 513.04132763 C71.15939593 513.03788241 63.70779734 513.04368516 56.25616455 513.05311584 C47.16784167 513.06436571 38.07965688 513.06123315 28.9913497 513.03999287 C24.35955047 513.02952257 19.727981 513.02529157 15.09618378 513.03858948 C10.84726643 513.05060312 6.59878946 513.04380489 2.34991145 513.02267927 C0.82184362 513.01825087 -0.70626225 513.02039356 -2.23430514 513.03018242 C-15.33953842 513.1076251 -27.7816626 511.0338885 -39.54443359 504.94543457 C-40.20314453 504.60955322 -40.86185547 504.27367187 -41.54052734 503.9276123 C-48.5129613 500.17874671 -53.89395862 495.1671841 -59.35693359 489.50793457 C-60.09427734 488.80152832 -60.83162109 488.09512207 -61.59130859 487.36730957 C-65.87259566 483.01964596 -68.82373101 478.26452783 -71.60693359 472.88293457 C-71.92436523 472.28070068 -72.24179688 471.6784668 -72.56884766 471.0579834 C-78.51321335 458.88641021 -79.9504034 446.50306313 -79.86486816 433.15100098 C-79.86948889 431.55656683 -79.8758496 429.96213697 -79.88377714 428.36771584 C-79.90033289 424.02943934 -79.89228748 419.69151898 -79.87983227 415.35324192 C-79.87072718 410.65785484 -79.88477839 405.96252611 -79.89575195 401.26715088 C-79.91348384 392.08592356 -79.90972103 382.90482748 -79.89810139 373.72359514 C-79.88904629 366.2579189 -79.88785203 358.79227929 -79.89219666 351.32659912 C-79.89280959 350.26167287 -79.89342252 349.19674663 -79.89405403 348.09954989 C-79.895333 345.93577686 -79.89662986 343.77200384 -79.89794439 341.60823083 C-79.90933458 321.34640573 -79.89626102 301.08465317 -79.87474293 280.82283998 C-79.85687338 263.45937166 -79.85997793 246.09601033 -79.87841797 228.73254395 C-79.8998523 208.54032062 -79.90823608 188.34816077 -79.89596891 168.15592766 C-79.8946948 166.00037512 -79.89343731 163.84482258 -79.89219666 161.68927002 C-79.89157955 160.62885895 -79.89096245 159.56844789 -79.89032665 158.47590315 C-79.88688144 151.0242641 -79.89268419 143.5726655 -79.90211487 136.12103271 C-79.91336473 127.03270983 -79.91023217 117.94452504 -79.88899189 108.85621786 C-79.8785216 104.22441864 -79.87429059 99.59284916 -79.8875885 94.96105194 C-79.89960214 90.71213459 -79.89280391 86.46365762 -79.87167829 82.21477962 C-79.8672499 80.68671179 -79.86939258 79.15860591 -79.87918144 77.63056302 C-79.95662412 64.52532975 -77.88288752 52.08320556 -71.79443359 40.32043457 C-71.45855225 39.66172363 -71.1226709 39.0030127 -70.77661133 38.32434082 C-67.02774573 31.35190686 -62.01618312 25.97090955 -56.35693359 20.50793457 C-55.65052734 19.77059082 -54.94412109 19.03324707 -54.21630859 18.27355957 C-49.86864499 13.99227251 -45.11352685 11.04113715 -39.73193359 8.25793457 C-39.12969971 7.94050293 -38.52746582 7.62307129 -37.90698242 7.29602051 C-25.73540923 1.35165481 -13.35206215 -0.08553523 0 0 Z " fill="#F5F5F5" transform="translate(79.35693359375,-0.5079345703125)"/>
<path d="M0 0 C23.76 0 47.52 0 72 0 C80.75536809 22.83560291 89.42461308 45.70022945 98.00079346 68.60357666 C99.17909595 71.7493638 100.35865396 74.89467955 101.53820419 78.03999901 C107.40214416 93.67737054 113.26086762 109.31626876 119 125 C122.8313891 117.6462221 126.17970051 110.11760729 129.41616821 102.48791504 C130.34584314 100.2964005 131.27928839 98.10652392 132.21362305 95.91699219 C133.6487245 92.55352788 135.08247142 89.18949002 136.515625 85.82519531 C140.64306949 76.14180132 144.79121811 66.46725291 148.93773174 56.79201317 C150.74184034 52.58232926 152.54460363 48.3720711 154.34692383 44.16162109 C157.22571459 37.43868312 160.11004298 30.71814553 163 24 C163.4833783 22.8761792 163.96675659 21.7523584 164.46478271 20.59448242 C165.86286447 17.34814984 167.26468037 14.1034598 168.66796875 10.859375 C169.09153152 9.87567932 169.5150943 8.89198364 169.95149231 7.878479 C170.53274117 6.53822662 170.53274117 6.53822662 171.12573242 5.17089844 C171.46505295 4.38600037 171.80437347 3.60110229 172.15397644 2.79241943 C173 1 173 1 174 0 C175.56547048 -0.09326716 177.13512772 -0.11745582 178.70336914 -0.11352539 C179.70433121 -0.11344986 180.70529327 -0.11337433 181.73658752 -0.11329651 C182.8251152 -0.10813522 183.91364288 -0.10297394 185.03515625 -0.09765625 C186.6977372 -0.09553383 186.6977372 -0.09553383 188.39390564 -0.09336853 C191.95013069 -0.08775033 195.50629383 -0.07519475 199.0625 -0.0625 C201.46679597 -0.05748734 203.87109292 -0.05292403 206.27539062 -0.04882812 C212.18361504 -0.03777499 218.0918031 -0.02101917 224 0 C224.45624756 1.093125 224.91249512 2.18625 225.38256836 3.3125 C233.72422631 23.29277782 242.08675307 43.26367641 250.5625 63.1875 C250.90416199 63.99126068 251.24582397 64.79502136 251.59783936 65.62313843 C255.25792954 74.23321985 258.92831181 82.83875825 262.61927795 91.43565369 C264.21821506 95.16168503 265.81317021 98.88941419 267.40768433 102.61734009 C268.17252845 104.40236714 268.93936872 106.18654031 269.70828247 107.96981812 C270.76998513 110.432268 271.82513296 112.89742994 272.87890625 115.36328125 C273.19674072 116.09563995 273.5145752 116.82799866 273.84204102 117.58255005 C275.1049258 120.55305808 276 122.73680778 276 126 C276.66 126 277.32 126 278 126 C278.11126221 125.1529248 278.22252441 124.30584961 278.3371582 123.43310547 C279.05141677 119.73369335 280.20248582 116.56689127 281.60546875 113.0703125 C281.87706818 112.38792511 282.1486676 111.70553772 282.42849731 111.00247192 C283.02595576 109.50325465 283.62613191 108.00511827 284.22866821 106.50793457 C285.56023076 103.19867171 286.87818876 99.88403697 288.19737244 96.56982422 C288.92704135 94.73719339 289.6574211 92.90484546 290.38844299 91.07275391 C294.92668462 79.69493254 299.40431997 68.29330562 303.88198853 56.89154053 C305.27249844 53.35182881 306.66478317 49.81281962 308.05737305 46.27392578 C308.95108195 44.00035415 309.84472077 41.72675497 310.73828125 39.453125 C311.12033722 38.48287384 311.50239319 37.51262268 311.89602661 36.51296997 C316.66481155 24.36748042 321.31563906 12.17933844 326 0 C349.43 0 372.86 0 397 0 C393.62545052 11.24849826 393.62545052 11.24849826 391.91308594 15.14355469 C391.52614059 16.03179428 391.13919525 16.92003387 390.74052429 17.83518982 C390.11873039 19.23934898 390.11873039 19.23934898 389.484375 20.671875 C389.04104324 21.68633194 388.59771149 22.70078888 388.14094543 23.74598694 C387.18343943 25.9359215 386.22346476 28.12477804 385.26126099 30.31265259 C382.91513559 35.64889043 380.5851542 40.99215711 378.25520515 46.33547401 C377.71579573 47.57233508 377.17618619 48.80910889 376.63638115 50.04579735 C370.86541044 63.26752301 365.20158833 76.53404848 359.5625 89.8125 C357.64749906 94.31916502 355.7320628 98.82564488 353.81640625 103.33203125 C353.33968475 104.4536264 352.86296326 105.57522156 352.37179565 106.73080444 C346.94201784 119.498985 341.47079737 132.24935582 336 145 C327.68408878 164.3855416 319.39207408 183.78109368 311.125 203.1875 C310.62387695 204.3633667 310.12275391 205.5392334 309.60644531 206.75073242 C308.19791664 210.05620106 306.79019883 213.3620136 305.3828125 216.66796875 C304.96629425 217.6454155 304.549776 218.62286224 304.12063599 219.62992859 C303.73680756 220.53217667 303.35297913 221.43442474 302.95751953 222.36401367 C302.62575714 223.14330734 302.29399475 223.92260101 301.95217896 224.72550964 C300.94163329 227.13942181 299.97189289 229.57026777 299 232 C285.47 232 271.94 232 258 232 C250.1225577 215.00723162 242.53447256 197.90400331 235.02360535 180.74699402 C234.43764336 179.40850151 234.43764336 179.40850151 233.83984375 178.04296875 C233.44577835 177.14270462 233.05171295 176.24244049 232.64570618 175.31489563 C228.14244263 165.03245242 223.60314616 154.76597634 219.0625 144.5 C217.48426504 140.9310382 215.90615776 137.36201996 214.328125 133.79296875 C213.95496658 132.94903564 213.58180817 132.10510254 213.19734192 131.2355957 C208.45000075 120.49695309 203.72154114 109.75001008 199 99 C193.05079687 110.64426163 187.53920743 122.44590467 182.1875 134.375 C181.36135196 136.20971139 180.53484659 138.04426191 179.70800781 139.87866211 C177.99389045 143.68231902 176.28129048 147.48665342 174.56982422 151.29150391 C170.87240612 159.5085519 167.15772811 167.71778782 163.44268799 175.92687988 C162.2575399 178.54583821 161.07282095 181.1649903 159.88818359 183.78417969 C152.61351595 199.86587333 145.30930016 215.9340135 138 232 C124.47 232 110.94 232 97 232 C86.40753818 207.42548859 76.03735107 182.76837137 65.7678833 158.05757141 C61.48737424 147.760373 57.18365621 137.47294629 52.875 127.1875 C52.13305237 125.41601741 51.391109 123.64453304 50.64916992 121.87304688 C49.17219625 118.34677604 47.69503111 114.82058547 46.21777344 111.29443359 C43.98021257 105.95317916 41.74384933 100.61142385 39.5078125 95.26953125 C39.13561584 94.38038025 38.76341919 93.49122925 38.37994385 92.57513428 C36.51019123 88.10830631 34.64067827 83.6413782 32.77148438 79.17431641 C29.30797353 70.89779367 25.84247499 62.62212266 22.36932373 54.34963989 C20.75741978 50.50997558 19.1467354 46.66980019 17.53613281 42.82958984 C16.77990032 41.02741593 16.02309347 39.22548289 15.265625 37.42382812 C14.73195313 36.15442383 14.73195313 36.15442383 14.1875 34.859375 C13.87989746 34.12823486 13.57229492 33.39709473 13.25537109 32.64379883 C8.7204586 21.80071892 4.36733556 10.91833891 0 0 Z " fill="#009561" transform="translate(57,140)"/>
<path d="M0 0 C23.1 0 46.2 0 70 0 C66.62520119 11.24932935 66.62520119 11.24932935 64.67504883 15.69897461 C64.24061966 16.69799301 63.80619049 17.69701141 63.3585968 18.7263031 C62.89608017 19.77439651 62.43356354 20.82248993 61.95703125 21.90234375 C61.46974045 23.01952286 60.98244965 24.13670197 60.48039246 25.28773499 C58.92977895 28.84002454 57.37147723 32.38887415 55.8125 35.9375 C53.77528815 40.59155018 51.74108627 45.24691318 49.70703125 49.90234375 C49.21679474 51.02281097 48.72655823 52.1432782 48.22146606 53.29769897 C44.05794081 62.82795365 39.99835405 72.39941583 36 82 C35.34 82 34.68 82 34 82 C25.93103721 63.54627424 18.03411173 45.03633694 10.39453125 26.40039062 C9.01695254 23.04133665 7.63403979 19.68452119 6.25 16.328125 C5.41642276 14.30218367 4.58307586 12.27614755 3.75 10.25 C3.36682617 9.32058594 2.98365234 8.39117187 2.58886719 7.43359375 C2.24500977 6.59441406 1.90115234 5.75523437 1.546875 4.890625 C1.09586426 3.79282715 1.09586426 3.79282715 0.63574219 2.67285156 C0 1 0 1 0 0 Z " fill="#5C108B" transform="translate(384,140)"/>
</svg>
